<svg width="16.000000" height="17.000000" viewBox="0 0 16 17" fill="none" xmlns="http://www.w3.org/2000/svg" xmlns:xlink="http://www.w3.org/1999/xlink">
	<desc>
			Created with Pixso.
	</desc>
	<defs/>
	<path id="github-[#142]" d="M8 0C12.41 0 16 3.67 16 8.2C16 11.82 13.71 14.89 10.53 15.98C10.12 16.06 9.98 15.8 9.98 15.59C9.98 15.32 9.99 14.43 9.99 13.33C9.99 12.57 9.73 12.07 9.45 11.82C11.23 11.61 13.1 10.92 13.1 7.77C13.1 6.87 12.79 6.14 12.28 5.57C12.36 5.36 12.63 4.53 12.2 3.4C12.2 3.4 11.53 3.18 10 4.24C9.36 4.06 8.68 3.96 8 3.96C7.31 3.96 6.63 4.06 5.99 4.24C4.46 3.18 3.79 3.4 3.79 3.4C3.36 4.53 3.63 5.36 3.71 5.57C3.2 6.14 2.89 6.87 2.89 7.77C2.89 10.91 4.76 11.62 6.54 11.82C6.31 12.03 6.1 12.39 6.03 12.92C5.57 13.13 4.41 13.49 3.7 12.24C3.7 12.24 3.28 11.45 2.47 11.39C2.47 11.39 1.69 11.38 2.42 11.89C2.42 11.89 2.94 12.14 3.31 13.09C3.31 13.09 3.78 14.56 6 14.06C6.01 14.74 6.01 15.39 6.01 15.59C6.01 15.8 5.87 16.06 5.47 15.98C2.29 14.9 0 11.82 0 8.2C0 3.67 3.58 0 8 0Z" fill="#F0D9B5" fill-opacity="1.000000" fill-rule="evenodd"/>
	<path id="github-[#142]" d="M16 8.2C16 11.82 13.71 14.89 10.53 15.98C10.12 16.06 9.98 15.8 9.98 15.59C9.98 15.32 9.99 14.43 9.99 13.33C9.99 12.57 9.73 12.07 9.45 11.82C11.23 11.61 13.1 10.92 13.1 7.77C13.1 6.87 12.79 6.14 12.28 5.57C12.36 5.36 12.63 4.53 12.2 3.4C12.2 3.4 11.53 3.18 10 4.24C9.36 4.06 8.68 3.96 8 3.96C7.31 3.96 6.63 4.06 5.99 4.24C4.46 3.18 3.79 3.4 3.79 3.4C3.36 4.53 3.63 5.36 3.71 5.57C3.2 6.14 2.89 6.87 2.89 7.77C2.89 10.91 4.76 11.62 6.54 11.82C6.31 12.03 6.1 12.39 6.03 12.92C5.57 13.13 4.41 13.49 3.7 12.24C3.7 12.24 3.28 11.45 2.47 11.39C2.47 11.39 1.69 11.38 2.42 11.89C2.42 11.89 2.94 12.14 3.31 13.09C3.31 13.09 3.78 14.56 6 14.06C6.01 14.74 6.01 15.39 6.01 15.59C6.01 15.8 5.87 16.06 5.47 15.98C2.29 14.9 0 11.82 0 8.2C0 3.67 3.58 0 8 0C12.41 0 16 3.67 16 8.2Z" stroke="#000000" stroke-opacity="0" stroke-width="1.000000"/>
</svg>
